# xmcd
#
# Track frame offsets: 
#        150
#        12902
#        24107
#        39792
#        49527
#        64375
#        75652
#        89405
#        106422
#        121357
#        135532
#
# Disc length: 2015 seconds
#
# Revision: 1
# Processed by: cddbd v1.5.2PL0 Copyright (c) Steve Scherf et al.
# Submitted via: ExactAudioCopy v0.95b4
#
DISCID=7f07dd0b
DTITLE=Chris LeDoux - He Rides The Wild Horses
DYEAR=1900
DGENRE=Country
TTITLE0=He Rides The Wild Horses
TTITLE1=So You Want To Be A Cowboy
TTITLE2=Blue Eyes And Freckles
TTITLE3=Back When We Was Kids
TTITLE4=Just Riding Through
TTITLE5=I Got You
TTITLE6=Freedom, Just A State Of Mind
TTITLE7=The Cowboy And The Hippie
TTITLE8=Misfortunes' Own Son
TTITLE9=Old Tom Horn
TTITLE10=When The Rodeo Comes To Town
EXTD=
EXTT0=
EXTT1=
EXTT2=
EXTT3=
EXTT4=
EXTT5=
EXTT6=
EXTT7=
EXTT8=
EXTT9=
EXTT10=
PLAYORDER=
